<svg xmlns="http://www.w3.org/2000/svg" height="48" viewBox="0 96 960 960" width="48"><path d="M238.471 990q-37.971 0-65.221-27.25Q146 935.5 146 897.529q0-37.97 27.004-64.75Q200.007 806 238.189 806q11.811 0 23.404 3.25t23.907 8.25L409 665q-16.5-19.5-23.25-41.25T383 577.5L201 518q-12 23-33.786 36.5-21.785 13.5-49.521 13.5-37.208 0-64.45-26.985Q26 514.029 26 475.765q0-38.265 27.25-65.015T118.471 384q37.97 0 64.75 26.917Q210 437.833 210 476q0 4.5-.5 7.75t-.5 5.75l182.5 63q10.5-20 29-35t45.5-20V304.934Q428 299 408 272.25q-20-26.75-20-58.663 0-36.92 26.985-64.254Q441.971 122 480.235 122q38.265 0 65.015 27.25T572 214q0 31.5-20 58.25t-58 32.684V497.5q27 5 45.25 20t31.25 35L751 489.1q-1-1.35-1-5.017V476q0-38.167 26.779-65.083Q803.559 384 841.529 384q37.971 0 65.221 26.985Q934 437.971 934 476.235q0 38.265-27.242 65.015Q879.515 568 842.307 568q-27.413 0-49.36-14.25T759 518l-182 59.5q5 24.5-2 47.25T551 664l124.5 154q9.5-6 22-9t23.873-3q39.119 0 65.873 26.779Q814 859.559 814 897.529q0 37.971-27.25 65.221Q759.5 990 721.529 990q-37.97 0-64.75-26.917Q630 936.167 630 897.429q0-18.122 5.042-32.343Q640.083 850.865 654 836L530 680.5Q508.373 695 479.593 695q-28.78 0-49.093-14.5L306 837q12.5 14 18.25 28.053 5.75 14.052 5.75 32.518 0 38.679-26.779 65.554Q276.441 990 238.471 990Zm-120.26-444q29.077 0 49.433-20.567Q188 504.866 188 475.789q0-29.076-20.567-49.433Q146.866 406 117.789 406q-29.076 0-49.433 20.567Q48 447.134 48 476.211q0 29.076 20.567 49.433Q89.134 546 118.21 546Zm120 422q29.077 0 49.433-20.567Q308 926.866 308 897.789q0-29.076-20.567-49.433Q266.866 828 237.789 828q-29.077 0-49.433 20.567Q168 869.134 168 898.211q0 29.076 20.567 49.433Q209.134 968 238.211 968Zm242-684q29.076 0 49.433-20.567Q550 242.866 550 213.789q0-29.076-20.567-49.433Q508.866 144 479.789 144q-29.077 0-49.433 20.567Q410 185.134 410 214.211q0 29.076 20.567 49.433Q451.134 284 480.211 284ZM480 672.5q32.5 0 55-22t22.5-54.5q0-32.5-22.63-55T480 518.5q-32.5 0-54.5 22.63t-22 54.87q0 32.5 22 54.5t54.5 22ZM722.211 968q29.076 0 49.433-20.567Q792 926.866 792 897.789q0-29.076-20.567-49.433Q750.866 828 721.789 828q-29.076 0-49.433 20.567Q652 869.134 652 898.211q0 29.076 20.567 49.433Q693.134 968 722.211 968Zm120-422q29.076 0 49.433-20.567Q912 504.866 912 475.789q0-29.076-20.567-49.433Q870.866 406 841.789 406q-29.076 0-49.433 20.567Q772 447.134 772 476.211q0 29.076 20.567 49.433Q813.134 546 842.211 546ZM480 214ZM118 476Zm362 120Zm362-120ZM238 898Zm484 0Z"/></svg>